<?xml version="1.0" encoding="UTF-8"?>
<svg xmlns="http://www.w3.org/2000/svg" xmlns:xlink="http://www.w3.org/1999/xlink" width="50px" height="50px" viewBox="0 0 50 50" version="1.1">
<g id="surface1">
<path style=" stroke:none;fill-rule:nonzero;fill:rgb(32.156864%,40.784314%,97.647059%);fill-opacity:1;" d="M 0 0 C 16.5 0 33 0 50 0 C 50 16.5 50 33 50 50 C 33.5 50 17 50 0 50 C 0 33.5 0 17 0 0 Z M 0 0 "/>
<path style=" stroke:none;fill-rule:nonzero;fill:rgb(32.549021%,41.176471%,97.647059%);fill-opacity:1;" d="M 0 0 C 16.5 0 33 0 50 0 C 50 16.5 50 33 50 50 C 33.5 50 17 50 0 50 C 0 33.5 0 17 0 0 Z M 4.511719 3.617188 C 4.355469 3.875 4.363281 4.070312 4.363281 4.371094 C 4.359375 4.492188 4.359375 4.613281 4.359375 4.738281 C 4.359375 4.871094 4.359375 5.003906 4.359375 5.140625 C 4.359375 5.28125 4.359375 5.421875 4.359375 5.566406 C 4.359375 5.957031 4.359375 6.347656 4.359375 6.738281 C 4.359375 7.160156 4.359375 7.578125 4.359375 8 C 4.355469 8.824219 4.355469 9.652344 4.355469 10.476562 C 4.355469 11.148438 4.355469 11.816406 4.355469 12.488281 C 4.355469 12.582031 4.355469 12.679688 4.355469 12.777344 C 4.355469 12.96875 4.355469 13.164062 4.355469 13.359375 C 4.355469 15.175781 4.355469 16.992188 4.355469 18.808594 C 4.355469 20.472656 4.355469 22.136719 4.351562 23.800781 C 4.351562 25.507812 4.347656 27.214844 4.351562 28.917969 C 4.351562 29.878906 4.351562 30.835938 4.347656 31.796875 C 4.347656 32.613281 4.347656 33.429688 4.347656 34.246094 C 4.347656 34.660156 4.351562 35.078125 4.347656 35.496094 C 4.347656 35.875 4.347656 36.257812 4.347656 36.636719 C 4.351562 36.777344 4.347656 36.914062 4.347656 37.050781 C 4.347656 37.238281 4.347656 37.425781 4.351562 37.613281 C 4.351562 37.71875 4.351562 37.824219 4.351562 37.929688 C 4.414062 38.28125 4.507812 38.394531 4.800781 38.601562 C 5.117188 38.660156 5.117188 38.660156 5.480469 38.648438 C 5.582031 38.652344 5.582031 38.652344 5.6875 38.652344 C 5.917969 38.652344 6.148438 38.652344 6.378906 38.652344 C 6.546875 38.652344 6.710938 38.652344 6.878906 38.652344 C 7.339844 38.65625 7.796875 38.652344 8.257812 38.652344 C 8.75 38.652344 9.246094 38.652344 9.738281 38.652344 C 10.710938 38.65625 11.679688 38.65625 12.648438 38.652344 C 13.433594 38.652344 14.222656 38.652344 15.011719 38.652344 C 15.179688 38.652344 15.179688 38.652344 15.351562 38.652344 C 15.578125 38.652344 15.804688 38.652344 16.03125 38.652344 C 18.167969 38.65625 20.300781 38.652344 22.433594 38.652344 C 24.265625 38.648438 26.097656 38.648438 27.929688 38.652344 C 30.058594 38.652344 32.183594 38.65625 34.308594 38.652344 C 34.535156 38.652344 34.761719 38.652344 34.988281 38.652344 C 35.101562 38.652344 35.210938 38.652344 35.328125 38.652344 C 36.113281 38.652344 36.902344 38.652344 37.6875 38.65625 C 38.648438 38.65625 39.605469 38.65625 40.5625 38.652344 C 41.054688 38.652344 41.542969 38.652344 42.03125 38.652344 C 42.480469 38.652344 42.925781 38.652344 43.375 38.652344 C 43.535156 38.652344 43.699219 38.652344 43.863281 38.652344 C 44.082031 38.652344 44.300781 38.652344 44.519531 38.648438 C 44.703125 38.648438 44.703125 38.648438 44.890625 38.648438 C 45.207031 38.621094 45.207031 38.621094 45.4375 38.433594 C 45.640625 38.140625 45.648438 37.96875 45.648438 37.613281 C 45.652344 37.492188 45.652344 37.375 45.652344 37.25 C 45.652344 37.117188 45.652344 36.980469 45.648438 36.847656 C 45.652344 36.707031 45.652344 36.5625 45.652344 36.421875 C 45.652344 36.03125 45.652344 35.640625 45.652344 35.25 C 45.648438 34.828125 45.652344 34.40625 45.652344 33.984375 C 45.652344 33.160156 45.652344 32.335938 45.652344 31.511719 C 45.648438 30.550781 45.648438 29.589844 45.648438 28.628906 C 45.652344 26.914062 45.648438 25.203125 45.648438 23.488281 C 45.644531 21.824219 45.644531 20.160156 45.644531 18.496094 C 45.644531 16.6875 45.644531 14.878906 45.644531 13.066406 C 45.644531 12.875 45.644531 12.679688 45.644531 12.488281 C 45.644531 12.394531 45.644531 12.296875 45.644531 12.199219 C 45.644531 11.53125 45.644531 10.859375 45.644531 10.191406 C 45.644531 9.375 45.644531 8.558594 45.640625 7.742188 C 45.640625 7.324219 45.640625 6.910156 45.640625 6.492188 C 45.640625 6.109375 45.640625 5.730469 45.640625 5.347656 C 45.640625 5.210938 45.640625 5.074219 45.640625 4.933594 C 45.640625 4.746094 45.640625 4.558594 45.636719 4.371094 C 45.636719 4.269531 45.636719 4.164062 45.636719 4.058594 C 45.617188 3.800781 45.617188 3.800781 45.488281 3.617188 C 45.203125 3.441406 44.964844 3.460938 44.628906 3.460938 C 44.527344 3.460938 44.527344 3.460938 44.421875 3.460938 C 44.1875 3.460938 43.957031 3.460938 43.726562 3.460938 C 43.558594 3.460938 43.390625 3.460938 43.222656 3.460938 C 42.761719 3.460938 42.296875 3.460938 41.835938 3.460938 C 41.339844 3.460938 40.84375 3.460938 40.34375 3.460938 C 39.371094 3.457031 38.394531 3.457031 37.421875 3.460938 C 36.628906 3.460938 35.835938 3.460938 35.042969 3.460938 C 34.933594 3.460938 34.820312 3.460938 34.703125 3.460938 C 34.476562 3.460938 34.246094 3.460938 34.019531 3.460938 C 31.871094 3.457031 29.726562 3.460938 27.582031 3.460938 C 25.738281 3.460938 23.894531 3.460938 22.050781 3.460938 C 19.914062 3.460938 17.777344 3.457031 15.640625 3.460938 C 15.410156 3.460938 15.183594 3.460938 14.957031 3.460938 C 14.789062 3.460938 14.789062 3.460938 14.617188 3.460938 C 13.824219 3.460938 13.03125 3.460938 12.242188 3.460938 C 11.277344 3.457031 10.3125 3.457031 9.351562 3.460938 C 8.859375 3.460938 8.367188 3.460938 7.875 3.460938 C 7.421875 3.460938 6.972656 3.460938 6.523438 3.460938 C 6.359375 3.460938 6.195312 3.460938 6.03125 3.460938 C 5.8125 3.460938 5.589844 3.460938 5.371094 3.460938 C 5.246094 3.460938 5.125 3.460938 4.996094 3.460938 C 4.707031 3.476562 4.707031 3.476562 4.511719 3.617188 Z M 4.511719 3.617188 "/>
<path style=" stroke:none;fill-rule:nonzero;fill:rgb(0%,0%,0.392157%);fill-opacity:1;" d="M 5.371094 3.460938 C 5.4375 3.460938 5.507812 3.460938 5.578125 3.460938 C 5.8125 3.460938 6.042969 3.460938 6.273438 3.460938 C 6.441406 3.460938 6.609375 3.460938 6.777344 3.460938 C 7.238281 3.460938 7.703125 3.460938 8.164062 3.460938 C 8.660156 3.460938 9.15625 3.460938 9.65625 3.460938 C 10.628906 3.457031 11.605469 3.457031 12.578125 3.460938 C 13.371094 3.460938 14.164062 3.460938 14.957031 3.460938 C 15.066406 3.460938 15.179688 3.460938 15.296875 3.460938 C 15.523438 3.460938 15.753906 3.460938 15.980469 3.460938 C 18.128906 3.457031 20.273438 3.460938 22.417969 3.460938 C 24.261719 3.460938 26.105469 3.460938 27.949219 3.460938 C 30.085938 3.460938 32.222656 3.457031 34.359375 3.460938 C 34.589844 3.460938 34.816406 3.460938 35.042969 3.460938 C 35.15625 3.460938 35.269531 3.460938 35.382812 3.460938 C 36.175781 3.460938 36.96875 3.460938 37.757812 3.460938 C 38.722656 3.457031 39.6875 3.457031 40.648438 3.460938 C 41.140625 3.460938 41.632812 3.460938 42.125 3.460938 C 42.578125 3.460938 43.027344 3.460938 43.476562 3.460938 C 43.640625 3.460938 43.804688 3.460938 43.96875 3.460938 C 44.1875 3.460938 44.410156 3.460938 44.628906 3.460938 C 44.753906 3.460938 44.875 3.460938 45.003906 3.460938 C 45.300781 3.5 45.300781 3.5 45.488281 3.617188 C 45.644531 3.875 45.636719 4.070312 45.636719 4.371094 C 45.640625 4.492188 45.640625 4.613281 45.640625 4.738281 C 45.640625 4.871094 45.640625 5.003906 45.640625 5.140625 C 45.640625 5.28125 45.640625 5.421875 45.640625 5.566406 C 45.640625 5.957031 45.640625 6.347656 45.640625 6.738281 C 45.640625 7.160156 45.640625 7.578125 45.640625 8 C 45.644531 8.824219 45.644531 9.652344 45.644531 10.476562 C 45.644531 11.148438 45.644531 11.816406 45.644531 12.488281 C 45.644531 12.582031 45.644531 12.679688 45.644531 12.777344 C 45.644531 12.96875 45.644531 13.164062 45.644531 13.359375 C 45.644531 15.175781 45.644531 16.992188 45.644531 18.808594 C 45.644531 20.472656 45.644531 22.136719 45.648438 23.800781 C 45.648438 25.507812 45.652344 27.214844 45.648438 28.917969 C 45.648438 29.878906 45.648438 30.835938 45.652344 31.796875 C 45.652344 32.613281 45.652344 33.429688 45.652344 34.246094 C 45.652344 34.660156 45.648438 35.078125 45.652344 35.496094 C 45.652344 35.875 45.652344 36.257812 45.652344 36.636719 C 45.648438 36.777344 45.652344 36.914062 45.652344 37.050781 C 45.652344 37.238281 45.652344 37.425781 45.648438 37.613281 C 45.648438 37.71875 45.648438 37.824219 45.648438 37.929688 C 45.585938 38.28125 45.492188 38.394531 45.199219 38.601562 C 44.890625 38.648438 44.890625 38.648438 44.519531 38.648438 C 44.453125 38.652344 44.382812 38.652344 44.3125 38.652344 C 44.082031 38.652344 43.851562 38.652344 43.621094 38.652344 C 43.453125 38.652344 43.289062 38.652344 43.121094 38.652344 C 42.660156 38.65625 42.203125 38.652344 41.742188 38.652344 C 41.25 38.652344 40.753906 38.652344 40.261719 38.652344 C 39.289062 38.65625 38.320312 38.65625 37.351562 38.652344 C 36.566406 38.652344 35.777344 38.652344 34.988281 38.652344 C 34.878906 38.652344 34.765625 38.652344 34.648438 38.652344 C 34.421875 38.652344 34.195312 38.652344 33.96875 38.652344 C 31.832031 38.65625 29.699219 38.652344 27.566406 38.652344 C 25.734375 38.648438 23.902344 38.648438 22.070312 38.652344 C 19.941406 38.652344 17.816406 38.65625 15.691406 38.652344 C 15.464844 38.652344 15.238281 38.652344 15.011719 38.652344 C 14.84375 38.652344 14.84375 38.652344 14.671875 38.652344 C 13.886719 38.652344 13.097656 38.652344 12.3125 38.65625 C 11.351562 38.65625 10.394531 38.65625 9.4375 38.652344 C 8.945312 38.652344 8.457031 38.652344 7.96875 38.652344 C 7.519531 38.652344 7.074219 38.652344 6.625 38.652344 C 6.464844 38.652344 6.300781 38.652344 6.136719 38.652344 C 5.917969 38.652344 5.699219 38.652344 5.480469 38.648438 C 5.355469 38.648438 5.234375 38.648438 5.109375 38.648438 C 4.800781 38.601562 4.800781 38.601562 4.5625 38.433594 C 4.359375 38.140625 4.351562 37.96875 4.351562 37.613281 C 4.347656 37.492188 4.347656 37.375 4.347656 37.25 C 4.347656 37.117188 4.347656 36.980469 4.351562 36.847656 C 4.347656 36.707031 4.347656 36.5625 4.347656 36.421875 C 4.347656 36.03125 4.347656 35.640625 4.347656 35.25 C 4.351562 34.828125 4.347656 34.40625 4.347656 33.984375 C 4.347656 33.160156 4.347656 32.335938 4.347656 31.511719 C 4.351562 30.550781 4.351562 29.589844 4.351562 28.628906 C 4.347656 26.914062 4.351562 25.203125 4.351562 23.488281 C 4.355469 21.824219 4.355469 20.160156 4.355469 18.496094 C 4.355469 16.6875 4.355469 14.878906 4.355469 13.066406 C 4.355469 12.875 4.355469 12.679688 4.355469 12.488281 C 4.355469 12.394531 4.355469 12.296875 4.355469 12.199219 C 4.355469 11.53125 4.355469 10.859375 4.355469 10.191406 C 4.355469 9.375 4.355469 8.558594 4.359375 7.742188 C 4.359375 7.324219 4.359375 6.910156 4.359375 6.492188 C 4.359375 6.109375 4.359375 5.730469 4.359375 5.347656 C 4.359375 5.210938 4.359375 5.074219 4.359375 4.933594 C 4.359375 4.746094 4.359375 4.558594 4.363281 4.371094 C 4.363281 4.269531 4.363281 4.164062 4.363281 4.058594 C 4.398438 3.800781 4.398438 3.800781 4.511719 3.617188 C 4.796875 3.441406 5.035156 3.460938 5.371094 3.460938 Z M 5.800781 13.101562 C 5.800781 21.019531 5.800781 28.941406 5.800781 37.101562 C 18.472656 37.101562 31.144531 37.101562 44.199219 37.101562 C 44.199219 29.179688 44.199219 21.261719 44.199219 13.101562 C 31.527344 13.101562 18.855469 13.101562 5.800781 13.101562 Z M 5.800781 13.101562 "/>
<path style=" stroke:none;fill-rule:nonzero;fill:rgb(31.764707%,40.392157%,96.470588%);fill-opacity:1;" d="M 5.800781 4.898438 C 18.472656 4.898438 31.144531 4.898438 44.199219 4.898438 C 44.199219 7.144531 44.199219 9.386719 44.199219 11.699219 C 31.527344 11.699219 18.855469 11.699219 5.800781 11.699219 C 5.800781 9.457031 5.800781 7.210938 5.800781 4.898438 Z M 5.800781 4.898438 "/>
<path style=" stroke:none;fill-rule:nonzero;fill:rgb(0.392157%,0.392157%,1.176471%);fill-opacity:1;" d="M 31.398438 17.5 C 31.65625 17.710938 31.65625 17.710938 31.886719 17.988281 C 32.015625 18.136719 32.015625 18.136719 32.148438 18.289062 C 32.273438 18.445312 32.273438 18.445312 32.398438 18.601562 C 32.472656 18.6875 32.546875 18.777344 32.621094 18.867188 C 32.769531 19.046875 32.914062 19.226562 33.058594 19.40625 C 33.332031 19.738281 33.609375 20.0625 33.886719 20.386719 C 34.414062 21 34.941406 21.617188 35.460938 22.238281 C 35.652344 22.460938 35.839844 22.679688 36.027344 22.902344 C 36.210938 23.117188 36.390625 23.332031 36.570312 23.550781 C 36.695312 23.695312 36.820312 23.835938 36.945312 23.980469 C 37.253906 24.335938 37.472656 24.597656 37.59375 25.054688 C 37.453125 25.578125 37.152344 25.898438 36.800781 26.300781 C 36.707031 26.40625 36.617188 26.515625 36.523438 26.625 C 36.320312 26.863281 36.117188 27.101562 35.910156 27.339844 C 35.621094 27.675781 35.335938 28.011719 35.050781 28.351562 C 34.613281 28.867188 34.175781 29.378906 33.734375 29.890625 C 33.429688 30.242188 33.136719 30.601562 32.84375 30.960938 C 32.511719 31.367188 32.175781 31.769531 31.832031 32.164062 C 31.789062 32.214844 31.742188 32.265625 31.699219 32.320312 C 31.46875 32.578125 31.316406 32.695312 30.980469 32.789062 C 30.699219 32.800781 30.699219 32.800781 30.46875 32.699219 C 30.207031 32.386719 30.179688 32.210938 30.199219 31.800781 C 30.386719 31.460938 30.644531 31.1875 30.898438 30.898438 C 30.996094 30.789062 31.089844 30.679688 31.183594 30.570312 C 31.386719 30.328125 31.59375 30.085938 31.804688 29.847656 C 32.054688 29.554688 32.300781 29.257812 32.542969 28.957031 C 32.902344 28.511719 33.273438 28.082031 33.648438 27.648438 C 34.113281 27.117188 34.570312 26.582031 35.011719 26.03125 C 35.171875 25.832031 35.339844 25.644531 35.511719 25.457031 C 35.722656 25.226562 35.722656 25.226562 35.6875 25.011719 C 35.574219 24.730469 35.410156 24.5625 35.199219 24.34375 C 34.878906 23.996094 34.566406 23.644531 34.269531 23.273438 C 33.921875 22.847656 33.570312 22.429688 33.210938 22.011719 C 32.730469 21.453125 32.25 20.890625 31.773438 20.324219 C 31.582031 20.097656 31.386719 19.867188 31.195312 19.640625 C 31.117188 19.550781 31.117188 19.550781 31.042969 19.460938 C 30.945312 19.347656 30.847656 19.234375 30.753906 19.121094 C 30.199219 18.46875 30.199219 18.46875 30.210938 18.050781 C 30.300781 17.699219 30.300781 17.699219 30.460938 17.5 C 30.808594 17.351562 31.035156 17.414062 31.398438 17.5 Z M 31.398438 17.5 "/>
<path style=" stroke:none;fill-rule:nonzero;fill:rgb(0.392157%,0.392157%,1.176471%);fill-opacity:1;" d="M 19.015625 17.359375 C 19.300781 17.398438 19.300781 17.398438 19.539062 17.554688 C 19.761719 17.894531 19.742188 18.097656 19.699219 18.5 C 19.546875 18.734375 19.40625 18.910156 19.21875 19.113281 C 19.117188 19.226562 19.015625 19.339844 18.914062 19.453125 C 18.835938 19.539062 18.835938 19.539062 18.753906 19.628906 C 18.511719 19.894531 18.28125 20.171875 18.050781 20.449219 C 17.957031 20.558594 17.867188 20.667969 17.773438 20.773438 C 17.730469 20.828125 17.683594 20.882812 17.636719 20.9375 C 15.917969 22.96875 15.917969 22.96875 14.199219 25 C 14.503906 25.476562 14.84375 25.894531 15.21875 26.320312 C 15.601562 26.757812 15.984375 27.195312 16.351562 27.648438 C 16.703125 28.085938 17.070312 28.511719 17.4375 28.9375 C 18.03125 29.621094 18.621094 30.304688 19.199219 31 C 19.257812 31.070312 19.316406 31.140625 19.378906 31.210938 C 19.609375 31.5 19.699219 31.703125 19.761719 32.070312 C 19.699219 32.398438 19.699219 32.398438 19.480469 32.648438 C 19.199219 32.800781 19.199219 32.800781 18.949219 32.804688 C 18 32.402344 17.1875 31.089844 16.546875 30.300781 C 16.253906 29.945312 15.953125 29.597656 15.648438 29.25 C 15.203125 28.738281 14.765625 28.21875 14.339844 27.6875 C 13.984375 27.261719 13.621094 26.84375 13.25 26.429688 C 12.4375 25.503906 12.4375 25.503906 12.351562 25.042969 C 12.417969 24.714844 12.554688 24.558594 12.773438 24.304688 C 12.855469 24.210938 12.941406 24.113281 13.023438 24.015625 C 13.070312 23.964844 13.113281 23.914062 13.160156 23.859375 C 13.304688 23.695312 13.445312 23.53125 13.589844 23.363281 C 13.789062 23.125 13.992188 22.890625 14.195312 22.652344 C 14.484375 22.320312 14.765625 21.984375 15.050781 21.648438 C 15.484375 21.132812 15.925781 20.621094 16.367188 20.109375 C 16.671875 19.753906 16.96875 19.394531 17.261719 19.03125 C 17.40625 18.855469 17.554688 18.675781 17.699219 18.5 C 17.761719 18.421875 17.761719 18.421875 17.824219 18.347656 C 17.953125 18.191406 18.085938 18.035156 18.21875 17.882812 C 18.296875 17.789062 18.375 17.695312 18.453125 17.601562 C 18.699219 17.398438 18.699219 17.398438 19.015625 17.359375 Z M 19.015625 17.359375 "/>
<path style=" stroke:none;fill-rule:nonzero;fill:rgb(97.647059%,98.039216%,99.607843%);fill-opacity:1;" d="M 14 40.300781 C 14.519531 40.292969 15.035156 40.285156 15.570312 40.273438 C 15.730469 40.269531 15.894531 40.269531 16.0625 40.265625 C 16.191406 40.261719 16.320312 40.261719 16.453125 40.261719 C 16.582031 40.257812 16.714844 40.257812 16.847656 40.253906 C 17.253906 40.308594 17.417969 40.410156 17.699219 40.699219 C 17.757812 40.964844 17.757812 40.964844 17.75 41.25 C 17.75 41.34375 17.746094 41.4375 17.746094 41.535156 C 17.695312 41.832031 17.597656 41.976562 17.398438 42.199219 C 17.472656 42.257812 17.472656 42.257812 17.546875 42.316406 C 17.75 42.5625 17.730469 42.707031 17.71875 43.019531 C 17.714844 43.152344 17.714844 43.152344 17.710938 43.292969 C 17.707031 43.359375 17.703125 43.429688 17.699219 43.5 C 17.46875 43.5 17.238281 43.5 17 43.5 C 16.976562 43.296875 16.953125 43.089844 16.929688 42.886719 C 16.917969 42.699219 16.917969 42.699219 16.800781 42.601562 C 16.644531 42.585938 16.488281 42.574219 16.332031 42.570312 C 16.1875 42.5625 16.1875 42.5625 16.042969 42.554688 C 15.945312 42.550781 15.847656 42.546875 15.742188 42.542969 C 15.644531 42.539062 15.542969 42.535156 15.441406 42.53125 C 15.195312 42.519531 14.945312 42.511719 14.699219 42.5 C 14.699219 42.828125 14.699219 43.160156 14.699219 43.5 C 14.46875 43.5 14.238281 43.5 14 43.5 C 14 42.445312 14 41.386719 14 40.300781 Z M 14 40.300781 "/>
<path style=" stroke:none;fill-rule:nonzero;fill:rgb(96.470588%,96.862745%,99.607843%);fill-opacity:1;" d="M 36.300781 40.300781 C 36.816406 40.289062 37.335938 40.28125 37.867188 40.269531 C 38.03125 40.265625 38.195312 40.257812 38.359375 40.253906 C 38.488281 40.253906 38.617188 40.253906 38.75 40.25 C 38.882812 40.25 39.015625 40.246094 39.148438 40.242188 C 39.585938 40.3125 39.730469 40.457031 40 40.800781 C 40.113281 41.230469 40.042969 41.609375 39.851562 42.007812 C 39.800781 42.070312 39.75 42.132812 39.699219 42.199219 C 39.773438 42.257812 39.773438 42.257812 39.847656 42.316406 C 40.050781 42.5625 40.03125 42.707031 40.019531 43.019531 C 40.015625 43.152344 40.015625 43.152344 40.011719 43.292969 C 40.007812 43.359375 40.003906 43.429688 40 43.5 C 39.769531 43.5 39.539062 43.5 39.300781 43.5 C 39.265625 43.203125 39.234375 42.90625 39.199219 42.601562 C 38.472656 42.566406 37.746094 42.535156 37 42.5 C 37 42.828125 37 43.160156 37 43.5 C 36.769531 43.5 36.539062 43.5 36.300781 43.5 C 36.300781 42.445312 36.300781 41.386719 36.300781 40.300781 Z M 36.300781 40.300781 "/>
<path style=" stroke:none;fill-rule:nonzero;fill:rgb(98.431373%,98.431373%,99.607843%);fill-opacity:1;" d="M 14.601562 45 C 15.101562 44.992188 15.601562 44.988281 16.117188 44.980469 C 16.277344 44.980469 16.433594 44.976562 16.59375 44.972656 C 16.71875 44.972656 16.84375 44.972656 16.972656 44.96875 C 17.164062 44.96875 17.164062 44.96875 17.359375 44.964844 C 17.722656 45.003906 17.910156 45.078125 18.199219 45.300781 C 18.335938 45.570312 18.324219 45.789062 18.332031 46.085938 C 18.335938 46.246094 18.335938 46.246094 18.34375 46.40625 C 18.289062 46.765625 18.179688 46.875 17.898438 47.101562 C 17.640625 47.230469 17.449219 47.210938 17.15625 47.210938 C 16.992188 47.210938 16.992188 47.210938 16.828125 47.207031 C 16.714844 47.207031 16.605469 47.207031 16.488281 47.207031 C 16.375 47.207031 16.261719 47.207031 16.144531 47.203125 C 15.863281 47.203125 15.582031 47.203125 15.300781 47.199219 C 15.300781 47.53125 15.300781 47.859375 15.300781 48.199219 C 15.070312 48.199219 14.839844 48.199219 14.601562 48.199219 C 14.601562 47.144531 14.601562 46.089844 14.601562 45 Z M 14.601562 45 "/>
<path style=" stroke:none;fill-rule:nonzero;fill:rgb(96.862745%,97.254902%,99.607843%);fill-opacity:1;" d="M 24.4375 40.179688 C 24.519531 40.179688 24.605469 40.179688 24.691406 40.175781 C 25.3125 40.175781 25.773438 40.25 26.300781 40.601562 C 26.320312 40.960938 26.320312 40.960938 26.300781 41.300781 C 26.070312 41.300781 25.839844 41.300781 25.601562 41.300781 C 25.601562 41.167969 25.601562 41.035156 25.601562 40.898438 C 24.90625 40.898438 24.214844 40.898438 23.5 40.898438 C 23.5 41.066406 23.5 41.230469 23.5 41.398438 C 23.664062 41.5625 23.847656 41.515625 24.074219 41.519531 C 24.171875 41.523438 24.265625 41.527344 24.367188 41.53125 C 24.570312 41.535156 24.773438 41.539062 24.980469 41.542969 C 25.546875 41.5625 25.976562 41.578125 26.398438 42 C 26.425781 42.210938 26.425781 42.210938 26.4375 42.476562 C 26.441406 42.5625 26.449219 42.648438 26.453125 42.734375 C 26.394531 43.023438 26.316406 43.207031 26.097656 43.402344 C 25.613281 43.640625 25.019531 43.5625 24.492188 43.550781 C 24.300781 43.550781 24.300781 43.550781 24.105469 43.550781 C 23.175781 43.539062 23.175781 43.539062 22.863281 43.371094 C 22.699219 43.199219 22.699219 43.199219 22.675781 42.832031 C 22.683594 42.722656 22.691406 42.613281 22.699219 42.5 C 22.929688 42.5 23.160156 42.5 23.398438 42.5 C 23.433594 42.632812 23.464844 42.765625 23.5 42.898438 C 23.832031 42.902344 24.164062 42.90625 24.492188 42.90625 C 24.589844 42.90625 24.683594 42.90625 24.78125 42.910156 C 24.871094 42.910156 24.960938 42.910156 25.054688 42.910156 C 25.136719 42.910156 25.21875 42.910156 25.304688 42.910156 C 25.5 42.921875 25.5 42.921875 25.601562 42.800781 C 25.605469 42.632812 25.605469 42.464844 25.601562 42.300781 C 25.355469 42.179688 25.1875 42.183594 24.914062 42.175781 C 24.816406 42.171875 24.71875 42.167969 24.621094 42.164062 C 24.414062 42.160156 24.210938 42.152344 24.007812 42.148438 C 23.910156 42.144531 23.8125 42.140625 23.714844 42.136719 C 23.582031 42.132812 23.582031 42.132812 23.445312 42.128906 C 23.183594 42.097656 23.019531 42.039062 22.800781 41.898438 C 22.617188 41.53125 22.652344 41.101562 22.699219 40.699219 C 23.117188 40.089844 23.769531 40.183594 24.4375 40.179688 Z M 24.4375 40.179688 "/>
<path style=" stroke:none;fill-rule:nonzero;fill:rgb(96.078432%,96.470588%,99.607843%);fill-opacity:1;" d="M 24.101562 45 C 24.445312 44.953125 24.757812 44.9375 25.101562 45 C 25.355469 45.214844 25.476562 45.472656 25.617188 45.769531 C 25.679688 45.882812 25.679688 45.882812 25.742188 46 C 25.824219 46.15625 25.90625 46.316406 25.984375 46.472656 C 26.089844 46.683594 26.203125 46.890625 26.320312 47.09375 C 26.800781 47.960938 26.800781 47.960938 26.800781 48.199219 C 26.535156 48.199219 26.273438 48.199219 26 48.199219 C 25.933594 48.003906 25.867188 47.804688 25.800781 47.601562 C 25.421875 47.601562 25.046875 47.609375 24.667969 47.617188 C 24.5625 47.621094 24.453125 47.621094 24.34375 47.621094 C 24.242188 47.625 24.136719 47.625 24.03125 47.628906 C 23.9375 47.632812 23.84375 47.632812 23.746094 47.632812 C 23.476562 47.679688 23.476562 47.679688 23.328125 47.953125 C 23.285156 48.035156 23.242188 48.117188 23.199219 48.199219 C 22.921875 48.265625 22.691406 48.222656 22.398438 48.199219 C 22.929688 47.109375 23.507812 46.054688 24.101562 45 Z M 24.101562 45 "/>
<path style=" stroke:none;fill-rule:nonzero;fill:rgb(96.862745%,97.254902%,99.607843%);fill-opacity:1;" d="M 32.199219 45 C 33.320312 45 34.445312 45 35.601562 45 C 35.601562 45.164062 35.601562 45.328125 35.601562 45.5 C 34.710938 45.5 33.816406 45.5 32.898438 45.5 C 32.898438 45.765625 32.898438 46.027344 32.898438 46.300781 C 33.726562 46.300781 34.550781 46.300781 35.398438 46.300781 C 35.398438 46.464844 35.398438 46.628906 35.398438 46.800781 C 34.609375 46.800781 33.816406 46.800781 33 46.800781 C 33 47.0625 33 47.328125 33 47.601562 C 33.859375 47.601562 34.714844 47.601562 35.601562 47.601562 C 35.601562 47.796875 35.601562 47.996094 35.601562 48.199219 C 34.476562 48.199219 33.355469 48.199219 32.199219 48.199219 C 32.199219 47.144531 32.199219 46.089844 32.199219 45 Z M 32.199219 45 "/>
<path style=" stroke:none;fill-rule:nonzero;fill:rgb(98.039216%,98.431373%,99.607843%);fill-opacity:1;" d="M 18.601562 40.300781 C 19.6875 40.300781 20.777344 40.300781 21.898438 40.300781 C 21.898438 40.464844 21.898438 40.628906 21.898438 40.800781 C 21.042969 40.800781 20.183594 40.800781 19.300781 40.800781 C 19.300781 41.0625 19.300781 41.328125 19.300781 41.601562 C 20.125 41.601562 20.949219 41.601562 21.800781 41.601562 C 21.800781 41.765625 21.800781 41.929688 21.800781 42.101562 C 20.976562 42.101562 20.148438 42.101562 19.300781 42.101562 C 19.300781 42.363281 19.300781 42.628906 19.300781 42.898438 C 20.191406 42.898438 21.082031 42.898438 22 42.898438 C 22 43.097656 22 43.296875 22 43.5 C 20.878906 43.5 19.757812 43.5 18.601562 43.5 C 18.601562 42.445312 18.601562 41.386719 18.601562 40.300781 Z M 18.601562 40.300781 "/>
<path style=" stroke:none;fill-rule:nonzero;fill:rgb(98.039216%,98.039216%,99.607843%);fill-opacity:1;" d="M 32.199219 40.300781 C 33.289062 40.300781 34.378906 40.300781 35.5 40.300781 C 35.5 40.464844 35.5 40.628906 35.5 40.800781 C 34.640625 40.800781 33.785156 40.800781 32.898438 40.800781 C 32.898438 41.0625 32.898438 41.328125 32.898438 41.601562 C 33.691406 41.601562 34.484375 41.601562 35.300781 41.601562 C 35.300781 41.765625 35.300781 41.929688 35.300781 42.101562 C 34.507812 42.101562 33.714844 42.101562 32.898438 42.101562 C 32.898438 42.363281 32.898438 42.628906 32.898438 42.898438 C 33.757812 42.898438 34.617188 42.898438 35.5 42.898438 C 35.5 43.097656 35.5 43.296875 35.5 43.5 C 34.410156 43.5 33.320312 43.5 32.199219 43.5 C 32.199219 42.445312 32.199219 41.386719 32.199219 40.300781 Z M 32.199219 40.300781 "/>
<path style=" stroke:none;fill-rule:nonzero;fill:rgb(96.470588%,96.862745%,99.607843%);fill-opacity:1;" d="M 29.398438 44.875 C 29.488281 44.875 29.574219 44.875 29.664062 44.871094 C 30.292969 44.875 30.765625 44.945312 31.300781 45.300781 C 31.371094 45.566406 31.378906 45.824219 31.398438 46.101562 C 31.136719 46.101562 30.871094 46.101562 30.601562 46.101562 C 30.585938 46.035156 30.574219 45.972656 30.5625 45.90625 C 30.542969 45.839844 30.519531 45.769531 30.5 45.699219 C 30.160156 45.53125 29.78125 45.582031 29.40625 45.582031 C 29.324219 45.578125 29.242188 45.578125 29.15625 45.578125 C 29.078125 45.578125 28.996094 45.578125 28.917969 45.578125 C 28.808594 45.578125 28.808594 45.578125 28.695312 45.574219 C 28.46875 45.589844 28.46875 45.589844 28.199219 45.800781 C 28.167969 46.058594 28.15625 46.285156 28.164062 46.542969 C 28.160156 46.644531 28.160156 46.644531 28.160156 46.75 C 28.15625 47.136719 28.15625 47.136719 28.328125 47.46875 C 28.539062 47.628906 28.648438 47.636719 28.914062 47.636719 C 28.992188 47.636719 29.070312 47.636719 29.152344 47.636719 C 29.273438 47.632812 29.273438 47.632812 29.398438 47.632812 C 29.480469 47.632812 29.5625 47.632812 29.648438 47.632812 C 30.152344 47.632812 30.152344 47.632812 30.601562 47.398438 C 30.648438 47.25 30.648438 47.25 30.699219 47.101562 C 30.929688 47.101562 31.160156 47.101562 31.398438 47.101562 C 31.339844 47.75 31.339844 47.75 31.15625 47.988281 C 30.671875 48.335938 30.042969 48.222656 29.46875 48.226562 C 29.34375 48.226562 29.222656 48.230469 29.09375 48.230469 C 28.914062 48.230469 28.914062 48.230469 28.734375 48.234375 C 28.570312 48.234375 28.570312 48.234375 28.402344 48.234375 C 28.054688 48.195312 27.875 48.113281 27.601562 47.898438 C 27.320312 47.484375 27.363281 47.039062 27.363281 46.554688 C 27.359375 46.472656 27.359375 46.386719 27.355469 46.300781 C 27.351562 45.898438 27.367188 45.65625 27.566406 45.304688 C 28.109375 44.832031 28.71875 44.867188 29.398438 44.875 Z M 29.398438 44.875 "/>
<path style=" stroke:none;fill-rule:nonzero;fill:rgb(98.039216%,98.039216%,99.607843%);fill-opacity:1;" d="M 27.300781 40.300781 C 27.53125 40.300781 27.761719 40.300781 28 40.300781 C 28 40.695312 28 41.09375 28 41.5 C 28.824219 41.5 29.648438 41.5 30.5 41.5 C 30.5 41.105469 30.5 40.707031 30.5 40.300781 C 30.730469 40.300781 30.960938 40.300781 31.199219 40.300781 C 31.199219 41.355469 31.199219 42.410156 31.199219 43.5 C 30.96875 43.5 30.738281 43.5 30.5 43.5 C 30.5 43.039062 30.5 42.574219 30.5 42.101562 C 29.675781 42.101562 28.851562 42.101562 28 42.101562 C 28 42.5625 28 43.023438 28 43.5 C 27.769531 43.5 27.539062 43.5 27.300781 43.5 C 27.300781 42.445312 27.300781 41.386719 27.300781 40.300781 Z M 27.300781 40.300781 "/>
<path style=" stroke:none;fill-rule:nonzero;fill:rgb(97.254902%,97.647059%,99.607843%);fill-opacity:1;" d="M 10.101562 40.300781 C 11.15625 40.300781 12.210938 40.300781 13.300781 40.300781 C 13.300781 40.464844 13.300781 40.628906 13.300781 40.800781 C 12.476562 40.800781 11.648438 40.800781 10.800781 40.800781 C 10.800781 41.097656 10.800781 41.394531 10.800781 41.699219 C 11.59375 41.699219 12.382812 41.699219 13.199219 41.699219 C 13.199219 41.898438 13.199219 42.097656 13.199219 42.300781 C 12.40625 42.300781 11.617188 42.300781 10.800781 42.300781 C 10.800781 42.695312 10.800781 43.09375 10.800781 43.5 C 10.570312 43.5 10.339844 43.5 10.101562 43.5 C 10.101562 42.445312 10.101562 41.386719 10.101562 40.300781 Z M 10.101562 40.300781 "/>
<path style=" stroke:none;fill-rule:nonzero;fill:rgb(96.862745%,97.254902%,99.607843%);fill-opacity:1;" d="M 19.101562 45 C 19.332031 45 19.5625 45 19.800781 45 C 19.800781 45.859375 19.800781 46.714844 19.800781 47.601562 C 20.558594 47.601562 21.316406 47.601562 22.101562 47.601562 C 22.101562 47.796875 22.101562 47.996094 22.101562 48.199219 C 21.109375 48.199219 20.121094 48.199219 19.101562 48.199219 C 19.101562 47.144531 19.101562 46.089844 19.101562 45 Z M 19.101562 45 "/>
<path style=" stroke:none;fill-rule:nonzero;fill:rgb(96.862745%,97.254902%,99.607843%);fill-opacity:1;" d="M 39.800781 7.398438 C 40.359375 7.398438 40.921875 7.398438 41.5 7.398438 C 41.5 7.960938 41.5 8.523438 41.5 9.101562 C 40.9375 9.101562 40.378906 9.101562 39.800781 9.101562 C 39.800781 8.539062 39.800781 7.976562 39.800781 7.398438 Z M 39.800781 7.398438 "/>
<path style=" stroke:none;fill-rule:nonzero;fill:rgb(97.647059%,98.039216%,99.607843%);fill-opacity:1;" d="M 34.199219 7.398438 C 34.761719 7.398438 35.320312 7.398438 35.898438 7.398438 C 35.898438 7.960938 35.898438 8.523438 35.898438 9.101562 C 35.339844 9.101562 34.777344 9.101562 34.199219 9.101562 C 34.199219 8.539062 34.199219 7.976562 34.199219 7.398438 Z M 34.199219 7.398438 "/>
<path style=" stroke:none;fill-rule:nonzero;fill:rgb(97.647059%,98.039216%,99.607843%);fill-opacity:1;" d="M 28.601562 7.398438 C 29.160156 7.398438 29.722656 7.398438 30.300781 7.398438 C 30.300781 7.960938 30.300781 8.523438 30.300781 9.101562 C 29.738281 9.101562 29.179688 9.101562 28.601562 9.101562 C 28.601562 8.539062 28.601562 7.976562 28.601562 7.398438 Z M 28.601562 7.398438 "/>
<path style=" stroke:none;fill-rule:nonzero;fill:rgb(37.254903%,45.490196%,98.039216%);fill-opacity:1;" d="M 15.300781 45.5 C 15.644531 45.496094 15.992188 45.492188 16.335938 45.488281 C 16.4375 45.484375 16.535156 45.484375 16.636719 45.484375 C 16.777344 45.480469 16.777344 45.480469 16.921875 45.480469 C 17.050781 45.480469 17.050781 45.480469 17.183594 45.476562 C 17.398438 45.5 17.398438 45.5 17.601562 45.699219 C 17.65625 46.320312 17.65625 46.320312 17.476562 46.570312 C 17.246094 46.738281 17.113281 46.734375 16.832031 46.730469 C 16.742188 46.726562 16.65625 46.726562 16.5625 46.726562 C 16.421875 46.722656 16.421875 46.722656 16.28125 46.71875 C 16.1875 46.71875 16.09375 46.714844 15.996094 46.714844 C 15.765625 46.710938 15.53125 46.707031 15.300781 46.699219 C 15.300781 46.304688 15.300781 45.90625 15.300781 45.5 Z M 15.300781 45.5 "/>
<path style=" stroke:none;fill-rule:nonzero;fill:rgb(34.509805%,42.745098%,98.039216%);fill-opacity:1;" d="M 14.699219 40.800781 C 15.027344 40.792969 15.355469 40.789062 15.679688 40.789062 C 15.773438 40.785156 15.867188 40.785156 15.960938 40.78125 C 16.050781 40.78125 16.140625 40.78125 16.234375 40.78125 C 16.316406 40.78125 16.398438 40.777344 16.480469 40.777344 C 16.699219 40.800781 16.699219 40.800781 17 41 C 17.03125 41.351562 17.03125 41.351562 17 41.699219 C 16.800781 41.898438 16.800781 41.898438 16.585938 41.921875 C 16.496094 41.921875 16.410156 41.921875 16.320312 41.917969 C 16.226562 41.917969 16.132812 41.917969 16.035156 41.917969 C 15.9375 41.914062 15.839844 41.914062 15.738281 41.914062 C 15.636719 41.910156 15.539062 41.910156 15.4375 41.910156 C 15.191406 41.90625 14.945312 41.902344 14.699219 41.898438 C 14.699219 41.535156 14.699219 41.175781 14.699219 40.800781 Z M 14.699219 40.800781 "/>
<path style=" stroke:none;fill-rule:nonzero;fill:rgb(33.725491%,42.352942%,98.039216%);fill-opacity:1;" d="M 37 40.800781 C 37.328125 40.796875 37.660156 40.796875 37.988281 40.792969 C 38.082031 40.792969 38.175781 40.792969 38.273438 40.792969 C 38.40625 40.789062 38.40625 40.789062 38.542969 40.789062 C 38.667969 40.789062 38.667969 40.789062 38.792969 40.789062 C 39 40.800781 39 40.800781 39.199219 40.898438 C 39.199219 41.195312 39.199219 41.492188 39.199219 41.800781 C 38.960938 41.921875 38.8125 41.910156 38.542969 41.910156 C 38.453125 41.910156 38.363281 41.910156 38.273438 41.910156 C 38.179688 41.90625 38.085938 41.90625 37.988281 41.90625 C 37.894531 41.90625 37.796875 41.90625 37.703125 41.90625 C 37.46875 41.902344 37.234375 41.902344 37 41.898438 C 37 41.535156 37 41.175781 37 40.800781 Z M 37 40.800781 "/>
<path style=" stroke:none;fill-rule:nonzero;fill:rgb(34.509805%,42.745098%,98.039216%);fill-opacity:1;" d="M 24.601562 45.5 C 24.816406 45.777344 25 46.054688 25.167969 46.363281 C 25.234375 46.480469 25.234375 46.480469 25.300781 46.597656 C 25.398438 46.800781 25.398438 46.800781 25.398438 47 C 24.90625 47 24.410156 47 23.898438 47 C 23.988281 46.550781 24.070312 46.34375 24.304688 45.96875 C 24.359375 45.878906 24.414062 45.792969 24.472656 45.703125 C 24.535156 45.601562 24.535156 45.601562 24.601562 45.5 Z M 24.601562 45.5 "/>
</g>
</svg>
